<svg version="1.1" id="Layer_1" xmlns="http://www.w3.org/2000/svg" xmlns:xlink="http://www.w3.org/1999/xlink" x="0px" y="0px"
	 width="100%" viewBox="0 0 1200 1200" enable-background="new 0 0 1200 1200" xml:space="preserve">
<path fill="#000000" opacity="1.000000" stroke="none" 
	d="
M1.000000,408.000000 
	C1.000000,273.500000 1.018229,139.499985 0.905810,5.500079 
	C0.902664,1.750550 1.750933,0.906086 5.500023,0.907022 
	C402.500000,1.006185 799.500000,1.006186 1196.500000,0.907022 
	C1200.249023,0.906086 1201.093994,1.750933 1201.093140,5.500023 
	C1200.993896,402.500000 1200.993896,799.500000 1201.093140,1196.500000 
	C1201.093994,1200.249023 1200.249023,1201.093994 1196.500000,1201.093018 
	C799.500000,1200.993896 402.500000,1200.993896 5.500024,1201.093140 
	C1.750934,1201.093994 0.905235,1200.249146 0.906700,1196.500000 
	C1.009330,933.833313 1.000000,671.166687 1.000000,408.000000 
z"/>
<path fill="#711A5F" opacity="1.000000" stroke="none" 
	d="
M898.979553,1104.008301 
	C872.327515,1119.930420 844.835510,1133.460327 816.337097,1144.673706 
	C785.782227,1156.696289 754.448853,1166.520874 722.164490,1172.992188 
	C705.669434,1176.298584 689.101562,1179.065918 672.388123,1181.105591 
	C651.468994,1183.658691 630.513550,1184.710571 609.451172,1185.259399 
	C596.009949,1185.609619 582.566772,1185.380127 569.242554,1184.704834 
	C543.383789,1183.394165 517.682739,1180.139771 492.150574,1175.319824 
	C461.723206,1169.575806 432.065277,1161.326538 402.910736,1151.070068 
	C375.707123,1141.500000 349.505341,1129.596191 324.138062,1115.976440 
	C295.289490,1100.487671 267.960571,1082.520508 242.139236,1062.378418 
	C229.221893,1052.302002 216.825745,1041.574341 204.735916,1030.468384 
	C196.146942,1022.578430 187.770325,1014.492065 179.716553,1006.100891 
	C160.690033,986.276978 143.095810,965.222229 126.964203,942.958923 
	C104.873161,912.470947 85.790672,880.166870 70.111229,845.979919 
	C52.308819,807.164185 38.497875,766.945984 29.775698,725.022156 
	C25.503151,704.485718 22.060762,683.876465 19.875771,663.013489 
	C18.165100,646.679565 17.735813,630.295715 16.680817,613.945740 
	C15.808909,600.433289 17.109444,587.095154 17.218056,573.691711 
	C17.335625,559.182556 19.135586,544.699829 20.821716,530.236023 
	C23.827103,504.455475 28.526543,479.016052 35.097801,453.951721 
	C43.446232,422.108856 54.207199,391.084930 67.918655,361.100494 
	C80.943298,332.617950 95.845291,305.228760 113.197670,279.119781 
	C126.194206,259.564728 140.291260,240.914719 155.422241,222.978775 
	C168.720596,207.215210 182.676346,192.071457 197.665329,177.946823 
	C226.730881,150.557404 258.053802,126.060249 291.996399,104.885521 
	C312.118073,92.332802 332.886566,81.048714 354.307343,70.970985 
	C380.043396,58.863102 406.620728,48.931072 433.903992,40.809280 
	C451.329376,35.622017 468.889496,31.102623 486.728943,27.652128 
	C500.979675,24.895760 515.301880,22.654041 529.721680,20.879248 
	C550.476685,18.324692 571.268311,17.309294 592.164062,16.745401 
	C605.606628,16.382639 619.020020,16.848486 632.380005,17.294542 
	C648.006958,17.816284 663.632690,19.644327 679.206970,21.735571 
	C706.069763,25.342598 732.540527,30.629385 758.596497,37.994537 
	C781.159607,44.372391 803.345886,51.869549 824.979919,60.973248 
	C858.136841,74.925812 889.866882,91.494652 919.957581,111.279648 
	C940.689514,124.911148 960.367004,139.834778 979.415710,155.718552 
	C996.160889,169.681564 1011.979675,184.608856 1026.795166,200.499603 
	C1047.200562,222.385864 1065.994263,245.644180 1082.980103,270.361145 
	C1101.671387,297.559937 1118.019043,326.086731 1131.897461,355.968201 
	C1145.614624,385.502106 1156.506714,416.114166 1165.158325,447.553528 
	C1170.942383,468.572662 1175.321045,489.865845 1178.748657,511.336273 
	C1180.749146,523.866638 1182.154419,536.520447 1183.174805,549.219604 
	C1184.265503,562.795471 1184.184326,576.423340 1185.288208,589.932922 
	C1186.459595,604.268982 1185.089600,618.459167 1184.662842,632.642700 
	C1184.123535,650.575867 1181.976685,668.498962 1179.249390,686.330078 
	C1176.129150,706.731323 1172.281616,726.941650 1167.140747,746.914734 
	C1160.301025,773.487305 1151.496338,799.395020 1141.100586,824.790955 
	C1124.476929,865.400635 1102.958252,903.319885 1077.846191,939.180664 
	C1068.195312,952.962402 1057.639526,966.133789 1046.681519,978.973938 
	C1033.185913,994.787781 1019.156433,1010.087524 1004.040161,1024.319092 
	C988.392761,1039.050659 972.050049,1053.002686 954.965454,1066.104370 
	C937.130798,1079.781250 918.271912,1091.883301 898.979553,1104.008301 
z"/>
<path fill="#000000" opacity="1.000000" stroke="none" 
	d="
M213.238495,197.238831 
	C242.234650,168.639847 274.297791,144.540756 308.512665,123.266922 
	C338.222656,104.794121 369.578552,89.574890 402.242493,77.063416 
	C422.136719,69.443214 442.424683,63.024307 463.097717,57.888676 
	C486.146790,52.162796 509.446960,47.927273 533.024841,44.769016 
	C565.115906,40.470417 597.301697,40.472000 629.478333,41.240555 
	C647.418213,41.669056 665.314514,44.129017 683.152893,46.751266 
	C714.424072,51.348145 744.964905,58.637196 774.985596,68.472191 
	C796.518066,75.526382 817.419006,84.005508 838.007263,93.431198 
	C863.795654,105.237541 888.243835,119.366478 911.815247,135.023911 
	C928.177246,145.892426 943.740051,157.863327 958.964844,170.312408 
	C976.641846,184.766632 992.738525,200.842926 1008.580811,217.179596 
	C1030.738647,240.029037 1050.165283,265.100311 1067.822021,291.575592 
	C1080.957886,311.272064 1092.819092,331.700623 1103.371826,352.871735 
	C1114.441895,375.080841 1123.974609,397.978516 1131.914551,421.478699 
	C1142.168579,451.828125 1149.983643,482.852997 1154.799927,514.529175 
	C1157.380127,531.498901 1159.056030,548.599792 1160.201294,565.778137 
	C1161.610840,586.921753 1161.321655,608.060425 1160.721436,629.143494 
	C1160.206055,647.244690 1157.945923,665.322693 1155.270630,683.324585 
	C1152.453125,702.283936 1148.715576,721.017822 1143.975098,739.544250 
	C1136.395508,769.166870 1126.309814,797.936584 1114.075928,825.988831 
	C1099.406250,859.626221 1081.286255,891.272217 1060.318970,921.326233 
	C1049.453857,936.900024 1037.725464,951.788513 1025.428833,966.285767 
	C1010.971558,983.330444 995.141663,999.030640 978.933044,1014.278931 
	C959.551025,1032.512573 938.552612,1048.918091 916.452820,1063.813477 
	C898.906189,1075.640137 880.779236,1086.472168 862.134705,1096.542725 
	C831.158752,1113.274048 798.660278,1126.215210 765.197449,1136.768677 
	C740.813416,1144.459106 715.929932,1150.269409 690.601074,1154.112305 
	C672.465759,1156.863892 654.294250,1158.887817 635.980469,1160.176392 
	C614.840332,1161.663696 593.698242,1161.338989 572.617004,1160.714600 
	C554.686523,1160.183472 536.788086,1157.819580 518.939453,1155.281494 
	C486.489502,1150.667236 454.836090,1142.875977 423.805176,1132.661743 
	C403.732788,1126.054688 384.150177,1118.027710 364.934662,1109.085693 
	C335.296753,1095.293579 307.252502,1078.845581 280.476440,1060.179321 
	C265.030304,1049.411255 250.277176,1037.766968 235.894974,1025.580688 
	C218.839767,1011.129517 203.156342,995.280579 187.883514,979.092529 
	C169.608871,959.722839 153.249313,938.671814 138.264832,916.607056 
	C123.099129,894.275574 109.316017,871.116089 97.486389,846.855408 
	C86.830521,825.001892 77.537186,802.550598 69.766609,779.493286 
	C61.014179,753.522461 54.277618,727.003052 49.285038,700.087219 
	C46.881882,687.131409 45.489758,673.970947 43.845661,660.868774 
	C40.502060,634.222900 40.867363,607.500488 41.070179,580.775146 
	C41.190727,564.890320 43.056110,549.110779 44.830494,533.317871 
	C47.507076,509.494965 52.042801,486.057098 57.923382,462.861145 
	C65.484184,433.037720 75.642578,404.119995 87.938553,375.897949 
	C101.124062,345.634338 117.165863,316.958923 135.385559,289.528168 
	C146.149033,273.323120 158.050583,257.900116 170.470261,242.867935 
	C183.714722,226.837479 198.306580,212.136581 213.238495,197.238831 
z"/>
<path fill="#711A5F" opacity="1.000000" stroke="none" 
	d="
M925.322571,818.357300 
	C916.455383,831.767883 906.865662,844.159119 896.545715,856.008118 
	C889.793884,863.760315 883.119141,871.585266 875.723267,878.729187 
	C853.061523,900.619080 828.473389,920.036499 801.393066,936.227234 
	C776.027344,951.392639 749.295288,963.678467 721.205933,972.723389 
	C700.959045,979.242920 680.190491,983.781311 659.116455,987.212585 
	C631.706970,991.675354 604.158752,991.752869 576.666260,990.741882 
	C549.916382,989.758118 523.559265,984.802856 497.675018,977.761230 
	C468.499725,969.824463 440.679535,958.433228 414.173279,943.982849 
	C389.588745,930.580078 366.733032,914.621277 345.561401,896.206116 
	C332.514221,884.857483 319.851929,873.153809 308.608185,860.027832 
	C290.431824,838.808838 273.882538,816.435303 260.340271,791.880066 
	C248.004013,769.511597 237.452332,746.387390 229.612442,722.092407 
	C222.969757,701.507385 217.928925,680.530212 214.866653,659.055786 
	C212.430649,641.973206 211.218964,624.888733 210.846725,607.631104 
	C210.151901,575.417664 213.558121,543.781433 220.652542,512.369629 
	C228.620193,477.091492 241.780121,443.860748 259.022278,412.254639 
	C272.024109,388.421356 287.548767,366.226715 305.586700,345.834412 
	C313.404083,336.996643 321.007324,327.950623 329.639282,319.903503 
	C351.344330,299.669159 374.508301,281.274261 400.033295,266.045197 
	C425.376740,250.924408 452.028015,238.510162 480.141937,229.495758 
	C500.729736,222.894547 521.717651,217.897308 543.194031,214.834763 
	C560.621521,212.349594 578.039551,210.884872 595.643188,210.923645 
	C609.856689,210.954941 624.095947,210.593842 638.228821,212.101013 
	C663.518127,214.797943 688.408630,219.523193 712.873474,226.755737 
	C739.342651,234.580811 764.525818,245.359772 788.684326,258.465790 
	C808.289490,269.101624 826.872009,281.410767 844.207397,295.580231 
	C856.801941,305.874634 869.253174,316.325623 880.474365,328.084412 
	C903.627686,352.347046 924.019897,378.734467 940.531372,408.022888 
	C953.481689,430.994324 964.383362,454.891510 972.440857,479.995850 
	C979.049438,500.586212 984.100769,521.562195 987.145081,543.041443 
	C989.543884,559.966370 990.772278,576.893921 991.156372,593.982422 
	C991.562256,612.036682 991.048340,630.038513 988.830078,647.886292 
	C984.458618,683.059265 975.869141,717.219421 962.029114,749.965820 
	C951.958130,773.794312 940.168152,796.684814 925.322571,818.357300 
z"/>
<path fill="#711A5F" opacity="1.000000" stroke="none" 
	d="
M700.690552,149.414551 
	C695.686584,138.601013 690.847046,128.130798 685.522705,116.611626 
	C682.884033,127.905815 680.459290,138.295227 678.029114,148.683395 
	C675.363098,160.079636 672.582092,171.450989 670.117188,182.890503 
	C669.628723,185.157211 668.934692,185.994263 666.682251,186.015030 
	C660.699280,186.070190 654.838013,184.568970 648.821655,184.848358 
	C646.070740,184.976105 645.805603,182.728836 646.249390,180.540070 
	C652.276245,150.813492 658.316589,121.089630 664.354736,91.365349 
	C665.239929,87.007698 666.335144,82.679749 666.948914,78.284401 
	C667.370605,75.264862 669.108459,74.778984 671.489319,75.101295 
	C678.351562,76.030273 685.191711,77.126717 692.060486,78.000450 
	C694.100525,78.259956 694.777649,79.557426 695.508118,81.102341 
	C703.924866,98.903336 712.394653,116.679337 720.786987,134.491806 
	C724.515930,142.406326 728.092407,150.392609 731.761536,158.335464 
	C732.364990,159.641739 732.678223,161.157974 734.633667,162.367111 
	C736.794983,152.907822 738.918518,143.717087 740.991638,134.514984 
	C743.710022,122.448822 746.379028,110.371521 749.093445,98.304459 
	C749.595154,96.074234 750.545776,95.192589 753.254211,95.804314 
	C758.225769,96.927185 763.365417,97.286766 768.413208,98.099342 
	C771.075806,98.527962 772.325867,99.742874 771.594177,102.926788 
	C764.466248,133.944565 757.520935,165.004227 750.440735,196.033066 
	C749.614014,199.655869 750.418152,204.749008 746.964050,206.373550 
	C744.052368,207.742981 740.130981,204.515656 736.600281,204.179062 
	C726.720520,203.237244 721.453125,198.108765 718.034119,188.737854 
	C713.177612,175.427139 706.661804,162.721863 700.690552,149.414551 
z"/>
<path fill="#711A5F" opacity="1.000000" stroke="none" 
	d="
M188.302399,400.158081 
	C168.388611,392.593109 148.824203,385.070587 129.198074,377.712799 
	C124.849922,376.082703 123.679810,373.813141 125.646774,369.454254 
	C127.337212,365.708221 128.562729,361.709686 129.584503,357.718018 
	C130.409851,354.493683 131.741287,353.786224 134.861679,355.023895 
	C148.373459,360.383209 161.948059,365.584656 175.514694,370.804871 
	C194.005356,377.919830 212.460876,385.131500 231.046753,391.989288 
	C235.024963,393.457153 234.415482,394.768860 233.555176,398.319885 
	C230.130783,412.454651 220.970169,418.180786 207.267975,421.397491 
	C183.717560,426.926239 160.654037,434.528931 136.158066,441.616394 
	C143.868423,445.019135 150.583115,448.017731 157.326233,450.950928 
	C171.418304,457.080872 185.497803,463.241302 199.645340,469.240967 
	C203.265137,470.776062 203.703629,472.722412 202.048141,476.108765 
	C199.807495,480.692017 197.858246,485.438507 196.119232,490.236481 
	C195.372681,492.296173 194.748352,492.859711 192.665970,491.924103 
	C174.895477,483.939697 157.110886,475.985931 139.290558,468.113434 
	C126.162132,462.313751 112.997833,456.593323 99.796867,450.960968 
	C96.050911,449.362671 94.092255,447.840881 96.711372,443.359772 
	C99.359695,438.828705 101.097702,433.752625 103.090591,428.856720 
	C104.106270,426.361542 105.686806,424.758972 108.320465,424.063049 
	C134.788483,417.068970 161.244781,410.030487 187.720673,403.066498 
	C188.867935,402.764740 190.099365,402.779144 190.583817,401.550934 
	C190.642990,401.400879 189.314789,400.703583 188.302399,400.158081 
z"/>
<path fill="#711A5F" opacity="1.000000" stroke="none" 
	d="
M120.826294,718.316650 
	C132.464081,717.550537 143.588211,714.924805 154.874222,713.485718 
	C167.292252,711.902344 179.648529,709.836975 192.037033,708.017944 
	C194.200302,707.700256 195.646255,707.567383 196.295609,710.818176 
	C197.328491,715.988953 196.639343,721.074524 196.974899,726.179016 
	C197.122055,728.417419 195.762878,728.880554 193.916336,729.179626 
	C186.449066,730.389099 179.012436,731.789795 171.540756,732.969543 
	C155.431381,735.513123 139.303894,737.941833 123.190498,740.460266 
	C112.282875,742.165100 101.383011,743.920715 90.488220,745.705811 
	C88.153198,746.088440 88.068336,744.607483 88.031357,743.036987 
	C87.918297,738.235107 88.020607,733.455933 87.080498,728.668030 
	C85.729546,721.787781 88.481026,716.732422 93.534119,711.650940 
	C106.424072,698.688721 119.204880,685.601074 131.864731,672.409973 
	C136.665741,667.407471 141.456558,662.324951 146.111786,657.270447 
	C145.428406,655.458496 144.019028,655.925842 143.060989,656.075684 
	C129.235687,658.237305 115.430031,660.524353 101.608284,662.709351 
	C94.281136,663.867554 86.931129,664.880798 79.593254,665.971741 
	C76.667328,666.406799 74.980545,665.502625 74.547516,662.259949 
	C73.916336,657.533325 72.824623,652.869995 72.089920,648.154663 
	C71.690048,645.588257 72.795296,644.370972 75.617607,643.942688 
	C96.466637,640.779419 117.282852,637.400452 138.116592,634.135254 
	C151.303360,632.068604 164.500458,630.067444 177.697800,628.068970 
	C180.389832,627.661316 182.204041,628.253601 182.085815,631.642029 
	C182.018204,633.579651 182.600906,635.555298 183.000275,637.491333 
	C185.097290,647.656616 180.584625,655.088501 173.660721,661.983704 
	C159.170898,676.413513 144.979599,691.143921 130.727661,705.811035 
	C127.271233,709.368225 124.055389,713.159180 120.509178,717.093872 
	C121.779953,717.402222 120.368805,718.188782 120.826294,718.316650 
z"/>
<path fill="#711A5F" opacity="1.000000" stroke="none" 
	d="
M158.766861,308.787598 
	C161.779755,304.821381 164.601349,301.156555 167.310028,297.410095 
	C168.862061,295.263489 169.974930,294.947296 172.442719,296.754303 
	C182.661072,304.236542 193.151535,311.347168 203.691803,318.698700 
	C204.215393,316.710449 203.826950,315.113098 203.260895,313.364471 
	C198.788315,299.548279 194.627289,285.628265 189.946930,271.884369 
	C188.673492,268.144989 189.457489,265.406830 191.721588,262.853333 
	C196.225372,257.773895 200.037338,252.185410 204.060959,246.750259 
	C204.843689,245.692947 205.554749,244.277893 207.030853,244.456345 
	C208.464523,244.629639 208.233109,246.346375 208.531982,247.300964 
	C214.150635,265.246552 219.673752,283.222321 225.130417,301.218018 
	C225.964996,303.970367 227.343826,304.995697 230.372391,305.085602 
	C246.605759,305.567566 262.849884,306.059235 279.047058,307.175079 
	C284.333801,307.539307 289.609711,307.985870 294.906403,307.980530 
	C297.628967,307.977783 298.230682,309.075226 296.884033,311.230194 
	C292.689240,317.943115 288.420471,324.610229 284.131805,331.263763 
	C283.252716,332.627625 281.837830,332.957275 280.228333,333.008118 
	C260.822052,333.620972 241.487427,331.190582 221.899399,332.040741 
	C232.693222,339.911621 243.518890,347.861694 254.408676,355.722961 
	C259.860992,359.658905 259.969116,359.748627 256.460602,364.952850 
	C253.414566,369.471039 249.977448,373.765472 247.346008,378.509796 
	C245.461914,381.906677 243.757645,381.409912 241.288681,379.663818 
	C226.471527,369.184906 211.626221,358.745758 196.811691,348.263123 
	C184.153732,339.306458 171.505966,330.335144 158.889771,321.319794 
	C151.937897,316.352081 152.444611,317.559418 157.249527,311.174438 
	C157.743088,310.518555 158.105148,309.763702 158.766861,308.787598 
z"/>
<path fill="#711A5F" opacity="1.000000" stroke="none" 
	d="
M519.018188,149.823181 
	C518.100769,146.163528 517.979858,142.877853 517.970215,139.543243 
	C517.918396,121.593353 516.365601,103.670021 516.991455,85.706352 
	C517.003052,85.373802 517.000977,85.038750 516.975220,84.707214 
	C516.067078,73.017799 516.067627,73.100601 527.717224,72.954979 
	C531.838135,72.903465 535.957825,72.393158 540.068298,71.991982 
	C543.190063,71.687309 544.086060,73.119537 544.030945,76.067818 
	C543.676758,95.026215 545.571777,113.941345 545.103577,132.916550 
	C544.953979,138.979660 546.003784,145.063507 546.939697,151.110855 
	C548.020630,158.096298 552.552429,161.524521 558.760376,162.655029 
	C564.246765,163.654114 570.025269,163.837906 575.507568,162.614227 
	C588.106262,159.802139 590.054443,158.007446 590.638611,144.300659 
	C591.548584,122.952415 590.590454,101.489296 588.988892,80.133957 
	C588.260010,70.414299 588.254639,69.856117 597.869690,70.064201 
	C602.389038,70.162003 606.796936,69.535965 611.219116,68.959892 
	C615.203735,68.440804 616.542969,70.562202 616.937927,73.940849 
	C617.014954,74.599800 617.013550,75.273186 616.989990,75.937836 
	C616.244690,96.895500 618.322937,117.803055 618.054443,138.758911 
	C617.868958,153.235245 613.683899,165.812424 602.213928,175.236328 
	C596.043030,180.306519 588.533325,182.579147 580.860046,183.795334 
	C570.359924,185.459549 559.801758,185.062042 549.294800,183.207336 
	C533.453369,180.410965 524.621582,170.370285 520.316101,155.551636 
	C519.810242,153.810593 519.462646,152.023590 519.018188,149.823181 
z"/>
<path fill="#711A5F" opacity="1.000000" stroke="none" 
	d="
M1007.958862,335.998352 
	C1019.250366,329.390961 1030.212158,322.934967 1041.122437,316.392914 
	C1043.540039,314.943298 1044.694946,315.592224 1046.052368,317.970398 
	C1053.176392,330.451782 1060.357666,342.905243 1067.793579,355.202515 
	C1074.890991,366.940247 1072.281372,384.520813 1063.473633,392.265045 
	C1053.917114,400.667603 1039.989380,402.570374 1029.090454,395.651947 
	C1019.684204,389.681061 1019.721313,389.702118 1014.333069,399.197662 
	C1007.636719,410.998383 1000.799744,422.720032 994.180786,434.563690 
	C992.287964,437.950470 991.223450,438.182800 989.045166,434.691193 
	C985.381165,428.817780 981.408264,423.110718 977.200684,417.612762 
	C974.688110,414.329651 975.395325,411.855377 977.549622,408.889282 
	C985.109436,398.480927 992.524353,387.967377 999.989807,377.490479 
	C1001.711609,375.074097 1002.722534,372.447540 1002.867188,368.521423 
	C992.719482,375.213623 983.315491,381.276642 974.061035,387.559875 
	C965.824707,393.151855 965.798340,393.320984 960.743896,385.148071 
	C958.052368,380.795837 955.815247,376.164703 953.292175,371.705200 
	C952.124573,369.641541 952.211060,368.442505 954.572510,367.081360 
	C972.308289,356.858429 989.943787,346.461365 1007.958862,335.998352 
z"/>
<path fill="#711A5F" opacity="1.000000" stroke="none" 
	d="
M294.924469,285.092682 
	C285.544495,255.821045 276.271301,226.932343 266.855499,198.090195 
	C266.151825,195.934677 266.552277,194.655548 268.115570,193.389618 
	C275.183960,187.665741 282.263855,181.955994 289.308838,176.203415 
	C291.347382,174.538849 292.861176,176.327942 294.171539,177.135834 
	C305.822845,184.319305 317.353729,191.697708 328.947754,198.974655 
	C347.531555,210.638702 366.081085,222.359375 384.780548,233.835388 
	C388.385223,236.047607 388.606140,237.504807 385.415924,240.129471 
	C380.322174,244.320236 375.388550,248.707626 370.438721,253.070328 
	C368.230499,255.016632 366.218842,254.869217 363.793793,253.310410 
	C359.219330,250.369934 354.397308,247.813782 349.832550,244.859329 
	C347.892181,243.603485 346.468628,243.522171 344.585327,244.878235 
	C334.700592,251.995743 324.781464,259.067291 314.781342,266.021179 
	C312.857574,267.358917 313.444489,268.635681 313.936249,270.263580 
	C315.794891,276.416656 317.442719,282.636627 319.444336,288.741394 
	C320.084106,290.692474 319.744873,291.963257 318.315125,293.103210 
	C313.808716,296.696136 309.150818,300.109924 304.786041,303.865601 
	C302.092041,306.183624 301.496643,305.162262 300.665009,302.372955 
	C298.969543,296.686462 296.907074,291.109344 294.924469,285.092682 
z"/>
<path fill="#711A5F" opacity="1.000000" stroke="none" 
	d="
M178.408447,506.328613 
	C181.200439,505.609436 183.666550,505.222382 186.011124,504.461060 
	C189.431427,503.350372 190.332153,504.877350 189.869446,507.866943 
	C188.935471,513.901550 188.070419,519.940063 187.990448,526.058167 
	C187.937759,530.089600 185.996033,532.256592 181.981628,532.962891 
	C176.953949,533.847534 171.972672,535.007019 166.989426,536.128113 
	C164.623795,536.660339 163.082031,537.567932 162.901855,540.666443 
	C162.192566,552.865051 161.116959,565.043762 160.060486,577.219727 
	C159.837906,579.784973 161.251907,580.807861 163.206482,581.613281 
	C168.854782,583.940857 174.426468,586.492188 180.191650,588.482239 
	C183.031464,589.462524 183.346054,591.236755 182.896851,593.426758 
	C181.772232,598.909546 180.121964,604.298279 179.249344,609.814392 
	C178.640961,613.660095 177.012817,613.014771 174.562332,611.836914 
	C159.216965,604.461182 143.843506,597.143982 128.489380,589.786499 
	C111.792450,581.785583 95.115532,573.742859 78.406937,565.766357 
	C75.576691,564.415283 74.028648,563.346130 74.686966,559.246887 
	C75.805496,552.282043 76.418877,545.147156 76.806274,538.080322 
	C77.025597,534.079590 78.893417,532.961121 81.986916,532.145813 
	C96.652985,528.280762 111.320267,524.419983 125.972511,520.503052 
	C143.332230,515.862366 160.676987,511.165741 178.408447,506.328613 
z"/>
<path fill="#711A5F" opacity="1.000000" stroke="none" 
	d="
M787.632996,1095.702271 
	C782.004578,1098.184204 776.711548,1100.506592 771.393677,1102.770386 
	C767.454895,1104.447021 763.735413,1104.753784 759.873352,1102.052124 
	C755.989075,1099.334961 751.697266,1097.200317 746.612915,1094.246216 
	C753.640747,1091.567627 759.845520,1089.582397 765.719238,1086.878174 
	C775.452759,1082.397217 785.429382,1078.302734 793.182312,1070.364868 
	C798.589294,1064.828857 801.998962,1058.567383 802.554749,1050.059448 
	C796.668579,1052.734009 791.103577,1055.309204 785.500793,1057.799072 
	C772.520142,1063.567627 759.374878,1068.742554 745.308655,1071.455200 
	C733.346375,1073.762329 724.946289,1070.235474 720.203064,1059.245483 
	C717.666016,1053.366943 715.241760,1047.388306 713.833313,1041.047485 
	C711.744202,1031.642700 714.561584,1024.255005 722.533203,1018.738953 
	C728.173950,1014.835693 734.415161,1012.232605 740.838135,1010.079163 
	C754.905823,1005.362671 768.496887,999.247803 782.915588,995.585449 
	C787.522278,994.415405 792.171570,993.189575 797.073303,994.497070 
	C802.898743,996.050964 807.368713,999.418945 809.811890,1004.753052 
	C816.345520,1019.017456 822.998169,1033.245361 822.077759,1049.658081 
	C821.458252,1060.703369 817.500854,1070.117798 810.222168,1078.271729 
	C803.866699,1085.391357 796.330994,1090.997681 787.632996,1095.702271 
z"/>
<path fill="#711A5F" opacity="1.000000" stroke="none" 
	d="
M495.986572,1081.102539 
	C486.015778,1077.637085 480.164795,1071.276855 480.923248,1059.673706 
	C481.388214,1052.559692 482.321045,1045.547485 484.032990,1038.670166 
	C486.682892,1028.024780 495.582947,1024.438110 503.995117,1024.034058 
	C517.495361,1023.385376 530.590027,1026.687134 543.835388,1028.470215 
	C551.345032,1029.481079 558.958740,1030.253662 566.260681,1032.152466 
	C578.267395,1035.274536 585.614136,1038.966919 585.071960,1055.645508 
	C584.915405,1060.460327 584.760071,1065.248779 583.975464,1069.993896 
	C582.363220,1079.744873 580.936768,1089.455322 575.549988,1098.204102 
	C568.437256,1109.755737 558.178345,1116.590698 545.377563,1119.927246 
	C531.073181,1123.655518 516.598816,1122.637329 502.154877,1120.812134 
	C500.773560,1120.637695 498.955536,1120.019775 498.258179,1118.987671 
	C494.689423,1113.704834 491.421722,1108.218872 487.427551,1101.806519 
	C502.377441,1104.862305 516.394531,1105.658203 530.429077,1104.908813 
	C541.597351,1104.312256 551.229553,1100.340820 557.438110,1089.389282 
	C536.496704,1088.143311 516.021912,1087.577637 495.986572,1081.102539 
z"/>
<path fill="#711A5F" opacity="1.000000" stroke="none" 
	d="
M949.676697,336.110779 
	C953.263672,338.752930 952.295105,340.892151 949.538269,342.943878 
	C947.159363,344.714355 944.393494,346.158051 942.505554,348.353912 
	C938.841309,352.615753 936.429382,351.764557 933.119141,347.758972 
	C921.757935,334.010864 910.058594,320.542511 898.518066,306.942169 
	C896.198120,304.208221 895.871826,301.914490 899.175049,299.204651 
	C911.956360,288.719482 924.554077,278.008270 937.128540,267.273926 
	C949.600159,256.627441 961.957092,245.846649 974.375549,235.137817 
	C976.376648,233.412231 978.488892,231.812912 980.452026,230.046631 
	C981.893738,228.749451 982.422119,229.412338 983.436523,230.711990 
	C992.883118,242.815018 1002.436401,254.834839 1011.978149,266.863373 
	C1014.338684,269.839081 1016.747986,272.776978 1019.175354,275.698578 
	C1021.115356,278.033691 1021.198120,279.906097 1018.440735,281.835876 
	C1015.343750,284.003326 1012.221741,286.277252 1009.643066,289.007690 
	C1006.330811,292.514893 1004.136658,291.262695 1001.715515,288.180756 
	C995.287842,279.998871 988.569641,272.033203 982.439453,263.636627 
	C980.444031,260.903473 979.237122,261.512482 977.461121,263.083252 
	C973.742615,266.372192 970.137634,269.789917 966.406433,273.064087 
	C964.604797,274.644989 964.370605,275.697083 966.145630,277.791931 
	C973.516724,286.490906 980.525696,295.495636 987.821716,304.259857 
	C989.944702,306.810059 989.566650,308.591705 987.092102,310.359161 
	C986.957458,310.455353 986.845337,310.591522 986.700195,310.663513 
	C982.066650,312.962280 979.027100,320.324982 974.273010,318.853363 
	C970.014282,317.535095 967.178101,311.430725 963.855103,307.324036 
	C958.784851,301.058044 953.835938,294.693909 948.813477,288.343597 
	C941.665222,293.331055 936.164734,299.822449 929.528259,304.997528 
	C927.777710,306.362518 927.174500,307.458740 929.027588,309.723297 
	C936.026672,318.276642 942.668396,327.122406 949.676697,336.110779 
z"/>
<path fill="#711A5F" opacity="1.000000" stroke="none" 
	d="
M907.015259,234.047546 
	C890.677979,244.710114 874.664062,255.227371 858.733704,265.869659 
	C856.799011,267.162109 855.662903,266.852020 853.947449,265.547089 
	C849.748779,262.353363 845.455017,259.248627 840.969727,256.480530 
	C838.025024,254.663193 837.544189,252.438187 838.308655,249.414139 
	C846.999390,215.034866 855.685364,180.654388 864.309631,146.258408 
	C865.126953,142.998749 865.974426,141.552307 869.639709,143.750504 
	C875.450256,147.235367 881.580322,150.202393 887.662415,153.212311 
	C890.248413,154.492035 890.107971,156.059006 889.354614,158.448746 
	C885.038940,172.139587 880.931335,185.895859 876.678589,199.606796 
	C873.307190,210.476074 869.840515,221.315918 866.379089,232.156998 
	C866.057373,233.164490 865.940735,234.079208 866.596313,235.343140 
	C873.284424,231.611938 878.754456,226.292145 884.719971,221.688843 
	C899.103699,210.589310 913.301880,199.249039 927.560059,187.987137 
	C930.095398,185.984528 932.215515,185.508698 934.854858,188.229202 
	C939.234070,192.743149 943.977722,196.910431 948.664062,201.116562 
	C951.119507,203.320358 951.275146,204.553207 948.139404,206.597565 
	C934.432007,215.534439 920.936462,224.796265 907.015259,234.047546 
z"/>
<path fill="#711A5F" opacity="1.000000" stroke="none" 
	d="
M1100.703369,430.226440 
	C1110.244995,438.901215 1115.220093,449.648712 1115.748779,461.898895 
	C1116.119507,470.488495 1113.743042,478.885254 1108.501221,486.166260 
	C1107.292603,487.845062 1106.577393,487.871490 1105.060181,486.667847 
	C1101.184326,483.593079 1097.171875,480.690491 1093.226807,477.702362 
	C1091.910767,476.705536 1091.618164,475.468201 1091.899170,473.777069 
	C1092.626587,469.399323 1092.916870,464.945801 1093.716431,460.583862 
	C1094.761230,454.882324 1091.718506,449.035156 1086.304077,446.975708 
	C1081.382080,445.103546 1076.485962,447.532654 1073.386353,453.146454 
	C1069.375244,460.410797 1068.727295,468.567322 1067.038574,476.438965 
	C1065.613892,483.079620 1064.066284,489.672058 1060.571289,495.563995 
	C1055.232666,504.564453 1047.225098,508.999084 1036.741455,509.005463 
	C1011.105225,509.021027 993.835266,490.288727 996.094543,464.526764 
	C996.822937,456.220062 999.879333,448.508789 1003.899963,441.186310 
	C1004.936584,439.298553 1005.998474,438.781860 1007.814148,439.943756 
	C1008.228577,440.208984 1008.735901,440.349915 1009.106018,440.660522 
	C1012.917297,443.859131 1019.221252,444.881317 1020.973083,449.181366 
	C1022.617798,453.218689 1018.567505,457.937317 1017.279114,462.437836 
	C1015.090149,470.084076 1015.159912,477.193024 1021.531006,483.004059 
	C1025.818115,486.914276 1030.675171,487.945984 1036.206787,485.867065 
	C1041.541626,483.862061 1043.486084,479.867035 1044.069824,474.451630 
	C1045.324585,462.810425 1046.564575,451.057678 1051.131714,440.165588 
	C1055.257080,430.326752 1062.999023,424.281281 1073.732544,423.107300 
	C1083.366089,422.053650 1092.566040,423.703033 1100.703369,430.226440 
z"/>
<path fill="#711A5F" opacity="1.000000" stroke="none" 
	d="
M1081.366211,600.886658 
	C1089.661987,600.961426 1097.493774,600.801208 1105.310547,601.072144 
	C1109.118408,601.204224 1110.032471,599.822449 1110.104858,596.192139 
	C1110.236694,589.579956 1111.414185,583.000061 1111.018433,576.350037 
	C1110.884277,574.097412 1111.752197,572.971130 1114.160278,573.004150 
	C1119.653809,573.079468 1125.150879,573.106995 1130.642944,572.988159 
	C1133.356567,572.929443 1134.085571,574.237610 1134.000000,576.652405 
	C1133.459717,591.916382 1134.649170,607.181274 1133.206665,622.475342 
	C1132.272461,632.378784 1132.895508,642.441467 1133.057617,652.428955 
	C1133.112671,655.824890 1132.134033,657.233276 1128.561890,657.056396 
	C1123.578857,656.809631 1118.567627,656.835205 1113.581787,657.050964 
	C1110.172729,657.198486 1108.991699,656.074524 1108.908081,652.543030 
	C1108.742310,645.547546 1110.381470,638.704773 1110.122437,631.691711 
	C1109.983521,627.929626 1108.843384,626.835327 1105.190063,626.931763 
	C1096.704224,627.155823 1088.201294,626.779053 1079.717896,627.045105 
	C1060.591919,627.644958 1041.524536,625.486084 1022.410034,626.031616 
	C1019.334351,626.119385 1017.823120,625.346558 1017.948547,621.900085 
	C1018.166382,615.913757 1018.083008,609.912476 1017.976074,603.920105 
	C1017.929321,601.295471 1018.619263,599.959290 1021.586792,599.973145 
	C1040.235107,600.060181 1058.884155,600.004517 1077.532837,600.054077 
	C1078.654663,600.057007 1079.775024,600.559204 1081.366211,600.886658 
z"/>
<path fill="#711A5F" opacity="1.000000" stroke="none" 
	d="
M1083.789307,721.287964 
	C1092.589966,729.093811 1101.096802,736.711609 1109.738525,744.172852 
	C1112.327881,746.408447 1112.969116,748.544678 1111.679565,751.850525 
	C1109.462891,757.533508 1107.715698,763.403503 1105.872559,769.226929 
	C1104.851196,772.453552 1103.917114,773.657104 1100.898193,770.519470 
	C1092.122070,761.397705 1083.055664,752.555237 1074.103149,743.603149 
	C1071.276001,740.776123 1067.979858,738.280334 1065.707031,735.061951 
	C1057.888184,723.990234 1046.436035,721.226501 1033.973389,719.907349 
	C1025.794067,719.041443 1017.709412,717.280334 1009.582031,715.922180 
	C1007.476379,715.570312 1006.991943,714.335938 1007.311646,712.327209 
	C1008.294739,706.149475 1009.013489,699.927124 1010.111938,693.771545 
	C1010.573242,691.186523 1010.674805,688.716675 1015.332703,689.697937 
	C1030.147217,692.818787 1045.158447,695.000671 1060.073608,697.657654 
	C1061.823120,697.969360 1063.267822,697.652405 1064.886475,697.160889 
	C1084.765503,691.125000 1104.664307,685.153992 1124.567993,679.199707 
	C1125.784546,678.835754 1127.502563,678.145996 1128.261597,678.666321 
	C1129.900269,679.789429 1128.253052,681.403503 1127.906006,682.706177 
	C1125.997192,689.870300 1123.920776,696.989990 1121.865967,704.114563 
	C1121.200928,706.420410 1120.145996,707.676331 1117.260742,708.251282 
	C1104.845459,710.725281 1092.544678,713.773315 1079.873535,716.687927 
	C1080.465454,718.721191 1082.401611,719.582397 1083.789307,721.287964 
z"/>
<path fill="#711A5F" opacity="1.000000" stroke="none" 
	d="
M799.009766,150.947083 
	C804.026184,139.917313 808.970337,129.268555 813.788086,118.562920 
	C814.842957,116.218987 816.076050,115.672699 818.439636,116.757553 
	C824.147888,119.377625 829.908875,121.889313 835.707581,124.303017 
	C838.909485,125.635750 839.359375,127.400589 837.841797,130.507523 
	C830.805542,144.912933 823.904724,159.385330 817.055908,173.881226 
	C809.285217,190.328369 801.590027,206.811478 793.937561,223.313965 
	C792.409302,226.609619 791.218384,228.536240 787.090027,225.754898 
	C782.456604,222.633255 777.171265,220.439804 772.057068,218.087067 
	C769.416138,216.872116 768.639648,215.680008 770.009094,212.796967 
	C779.725281,192.342590 789.283447,171.813171 799.009766,150.947083 
z"/>
<path fill="#711A5F" opacity="1.000000" stroke="none" 
	d="
M1046.688232,529.890320 
	C1054.992432,528.889893 1062.840210,527.920166 1070.694580,527.006165 
	C1081.663452,525.729919 1092.636719,524.491699 1103.608887,523.244202 
	C1110.158691,522.499451 1116.706421,521.731079 1123.263184,521.053223 
	C1125.165894,520.856567 1126.494751,521.098206 1127.081787,523.689392 
	C1128.558350,530.208496 1127.139038,536.927551 1128.850098,543.395569 
	C1129.251587,544.912659 1128.232056,545.506409 1126.723022,546.078430 
	C1122.259277,547.770630 1117.542969,547.169312 1112.992188,547.762939 
	C1098.603027,549.639832 1084.093750,550.574707 1069.648071,552.043213 
	C1052.750854,553.760925 1035.861084,555.566467 1018.996460,557.572815 
	C1016.473999,557.872925 1016.137146,557.030518 1016.015686,555.085205 
	C1015.603455,548.480469 1015.345947,541.856018 1014.600342,535.287781 
	C1014.343994,533.029663 1015.407288,533.171753 1016.711121,533.033997 
	C1026.551270,531.994446 1036.393311,530.972961 1046.688232,529.890320 
z"/>
<path fill="#711A5F" opacity="1.000000" stroke="none" 
	d="
M388.305786,201.673462 
	C377.222229,180.534729 366.420319,159.669632 355.360413,138.942184 
	C353.108887,134.722488 353.680267,132.608521 358.157837,130.808853 
	C363.061127,128.838074 367.834717,126.429909 372.390564,123.746666 
	C375.872223,121.696075 377.351471,122.487175 379.074005,125.971321 
	C392.584473,153.298767 406.290680,180.529404 419.930115,207.793106 
	C425.179474,218.286011 425.171082,218.288315 415.000275,224.014633 
	C412.404114,225.476334 409.573700,226.650040 407.280670,228.491302 
	C404.063629,231.074448 402.727631,229.503082 401.293488,226.687912 
	C397.085480,218.427765 392.769806,210.222473 388.305786,201.673462 
z"/>
<path fill="#711A5F" opacity="1.000000" stroke="none" 
	d="
M400.308319,1045.322510 
	C406.095001,1034.113525 411.459198,1023.097839 417.411255,1012.409546 
	C419.496063,1008.665771 417.827637,1007.933777 415.025787,1007.129517 
	C411.225830,1006.038635 407.434692,1004.884888 403.579895,1004.026978 
	C400.526855,1003.347473 399.877350,1002.047791 401.270813,999.220764 
	C402.503906,996.719116 403.524292,994.058105 404.221466,991.359741 
	C405.252136,987.370544 407.132904,986.542175 411.046478,988.043945 
	C422.129272,992.297058 433.314148,996.295654 444.541443,1000.153992 
	C448.067352,1001.365662 448.180664,1002.906372 446.620392,1005.892456 
	C436.135071,1025.959595 425.763977,1046.086548 415.386444,1066.209961 
	C412.655548,1071.505615 409.878296,1076.786865 407.418152,1082.208862 
	C405.978149,1085.382446 404.332581,1085.956177 401.337921,1084.212036 
	C396.925171,1081.641968 392.420502,1079.203857 387.817108,1076.997070 
	C385.188171,1075.736816 385.162537,1074.403320 386.401947,1072.072632 
	C391.061920,1063.310181 395.559021,1054.461182 400.308319,1045.322510 
z"/>
<path fill="#711A5F" opacity="1.000000" stroke="none" 
	d="
M648.997437,1105.045166 
	C647.000122,1087.574463 644.914062,1070.570679 643.098633,1053.537842 
	C642.789368,1050.636475 641.717285,1049.751465 639.099792,1050.008789 
	C634.498779,1050.460815 629.825378,1050.547974 625.320374,1051.465820 
	C622.579590,1052.024292 622.217529,1051.205933 621.987366,1048.942017 
	C620.941711,1038.655762 620.903992,1038.681152 630.851929,1036.148926 
	C639.625366,1033.915771 648.391357,1031.652710 657.147156,1029.351318 
	C660.005554,1028.599976 661.895020,1028.857422 662.264709,1032.461914 
	C663.036865,1039.989014 664.094238,1047.486694 664.991211,1055.001465 
	C666.298523,1065.954590 667.598633,1076.908691 668.843872,1087.869019 
	C669.923462,1097.371704 670.933899,1106.882324 671.948120,1116.392334 
	C672.163818,1118.414917 671.777100,1119.875000 669.207886,1120.126587 
	C664.464478,1120.591064 659.738525,1121.277344 655.027527,1122.013550 
	C651.641113,1122.542603 650.536377,1120.414917 650.172974,1117.823975 
	C649.600464,1113.742188 649.373230,1109.611938 648.997437,1105.045166 
z"/>
<path fill="#711A5F" opacity="1.000000" stroke="none" 
	d="
M950.001526,903.007263 
	C950.357605,892.997009 956.741333,885.367737 965.498962,884.049927 
	C973.767395,882.805725 983.302979,887.936890 985.923889,895.040466 
	C989.522339,904.793884 986.573792,914.391357 978.305908,919.120483 
	C964.426025,927.059509 949.255920,915.483826 950.001526,903.007263 
z"/>
<path fill="#711A5F" opacity="1.000000" stroke="none" 
	d="
M221.484131,918.723450 
	C214.433899,912.790344 211.391083,905.922241 213.950684,896.953674 
	C216.024979,889.685486 224.004593,883.854309 232.397842,884.006042 
	C240.245361,884.147827 248.475937,890.580261 249.953735,897.684326 
	C252.763321,911.190796 244.953232,920.202759 232.647415,921.809204 
	C228.857056,922.304016 225.193893,920.745178 221.484131,918.723450 
z"/>
<path fill="#000000" opacity="1.000000" stroke="none" 
	d="
M400.000000,837.000488 
	C389.500458,837.000000 379.493988,836.781494 369.504547,837.098694 
	C365.078705,837.239258 363.888733,835.881226 363.905609,831.488281 
	C364.065002,789.990784 363.943970,748.492310 364.087494,706.994690 
	C364.101379,702.979004 362.863892,700.237915 360.051544,697.442444 
	C329.555847,667.130371 299.263336,636.613464 268.686707,606.383728 
	C264.949646,602.689087 265.383728,600.928589 268.838165,597.504944 
	C299.259552,567.354919 329.441284,536.963074 359.847290,506.797394 
	C362.968140,503.701233 364.090179,500.601318 364.076813,496.319366 
	C363.947479,454.988312 364.081268,413.656372 363.891937,372.325775 
	C363.869385,367.397858 365.002655,365.849243 370.188263,365.876007 
	C412.851837,366.096588 455.517181,365.956512 498.181549,366.074615 
	C501.974274,366.085114 504.645233,364.983459 507.329712,362.282684 
	C537.053833,332.377563 566.981323,302.674011 596.618774,272.683624 
	C600.318115,268.940216 602.079956,269.392914 605.498230,272.840973 
	C636.121643,303.731750 666.966553,334.402954 697.639404,365.244995 
	C700.309326,367.929688 702.957031,369.090149 706.769897,369.078278 
	C747.434326,368.951813 788.099731,369.094818 828.763428,368.881134 
	C833.859131,368.854401 835.139587,370.258362 835.114380,375.277466 
	C834.910645,415.774567 835.065613,456.273438 834.904114,496.770935 
	C834.887329,500.981506 836.196106,503.832794 839.131165,506.749817 
	C870.455994,537.882568 901.662598,569.134399 932.864197,600.390930 
	C938.106201,605.642151 938.192993,604.274597 932.702087,609.774414 
	C904.089050,638.434265 875.474548,667.092896 846.751465,695.642273 
	C844.064392,698.313110 842.911316,700.964050 842.922729,704.774780 
	C843.047363,746.439209 842.907349,788.104553 843.119995,829.768250 
	C843.145996,834.873657 841.726501,836.134766 836.717712,836.112549 
	C792.720581,835.917236 748.721924,836.069946 704.724670,835.895142 
	C700.154602,835.877014 697.053711,837.287354 693.885437,840.479675 
	C664.300293,870.287903 634.512695,899.895264 604.930725,929.706604 
	C601.908081,932.752625 600.323975,933.012817 597.141357,929.801147 
	C567.580139,899.969421 537.798767,870.355957 508.183868,840.577087 
	C505.636292,838.015503 503.123932,836.907166 499.478271,836.922058 
	C466.485992,837.056946 433.492859,837.000671 400.000000,837.000488 
z"/>
<path fill="#000000" opacity="1.000000" stroke="none" 
	d="
M858.999512,368.000061 
	C858.998901,361.834503 858.720276,356.150909 859.086670,350.509186 
	C859.374512,346.077728 857.886902,344.888123 853.490601,344.905975 
	C813.499084,345.068420 773.506775,345.000671 733.514648,344.999878 
	C727.349182,344.999756 721.182739,344.932587 715.018860,345.030823 
	C712.723572,345.067413 710.943481,344.514160 709.249146,342.815460 
	C674.417480,307.893768 639.531616,273.026184 604.669128,238.135223 
	C604.002319,237.467880 603.028564,236.935226 603.249451,234.670395 
	C689.967529,235.859558 767.453125,263.158173 833.842834,318.751404 
	C920.649231,391.440948 964.424133,485.432129 967.634094,598.614380 
	C964.693726,599.082153 964.009888,597.457703 963.043030,596.492310 
	C929.318604,562.819519 895.649353,529.091370 861.875061,495.468719 
	C859.634216,493.237915 858.950500,490.978455 858.955505,487.978424 
	C859.022400,448.152374 858.999817,408.326172 858.999512,368.000061 
z"/>
<path fill="#000000" opacity="1.000000" stroke="none" 
	d="
M395.000000,342.000549 
	C377.740082,342.000549 360.980194,342.000549 344.220276,342.000549 
	C344.061890,341.581299 343.903503,341.162048 343.745087,340.742798 
	C373.552521,310.819580 407.783264,286.949768 446.054749,269.127075 
	C494.372345,246.625977 545.219849,234.707870 598.943359,234.896637 
	C598.697815,237.675446 596.894470,238.557144 595.681763,239.772095 
	C562.847839,272.667267 529.950012,305.498871 497.165894,338.443604 
	C494.612762,341.009247 492.090973,342.093689 488.456146,342.077789 
	C457.471222,341.942200 426.485504,342.000397 395.000000,342.000549 
z"/>
<path fill="#000000" opacity="1.000000" stroke="none" 
	d="
M763.994873,929.001221 
	C713.059387,954.003906 659.731628,967.059998 603.027832,967.156921 
	C603.334473,964.315247 605.123047,963.425781 606.340271,962.206299 
	C639.185608,929.299866 672.077209,896.439575 704.918152,863.528809 
	C707.109314,861.332947 709.198914,859.902771 712.626343,859.912292 
	C759.619507,860.043579 806.613220,859.994934 853.606750,860.026184 
	C855.017273,860.027161 856.574646,859.528931 858.386780,861.091980 
	C830.689636,888.942261 799.060547,911.024536 763.994873,929.001221 
z"/>
<path fill="#000000" opacity="1.000000" stroke="none" 
	d="
M486.131348,948.928650 
	C452.072266,937.257629 420.395050,921.701355 391.313690,901.073608 
	C379.856689,892.947021 368.723602,884.402954 358.278870,874.945801 
	C353.645172,870.750183 349.076843,866.580994 344.626648,862.011597 
	C346.601746,860.503418 348.315277,861.029053 349.889954,861.027893 
	C396.549561,860.994141 443.209229,861.027100 489.868713,860.943420 
	C493.096436,860.937622 495.432129,861.827698 497.745483,864.150940 
	C530.433655,896.977661 563.219727,929.706787 595.952026,962.489624 
	C597.065247,963.604553 598.677979,964.429810 598.969666,966.984497 
	C560.297058,967.625122 523.066101,960.549377 486.131348,948.928650 
z"/>
<path fill="#000000" opacity="1.000000" stroke="none" 
	d="
M291.317627,405.377930 
	C304.674255,385.192841 318.946442,366.186096 335.539551,349.009125 
	C336.621674,347.888916 337.444885,346.250671 339.394135,346.120178 
	C340.458466,347.670563 339.973145,349.373230 339.974243,350.960938 
	C340.005707,396.439850 339.961792,441.918854 340.071777,487.397522 
	C340.080536,491.008209 339.069214,493.559937 336.488068,496.127655 
	C304.127625,528.319153 271.881958,560.626038 239.597656,592.894104 
	C238.459335,594.031860 237.226349,595.074829 235.069290,597.047424 
	C235.069290,589.825073 234.572128,583.719604 235.167938,577.722778 
	C236.618256,563.125183 238.063019,548.528137 240.850357,534.074524 
	C243.008789,522.882019 245.550720,511.794556 248.649063,500.859314 
	C255.377686,477.111359 264.346741,454.199829 275.930542,432.380585 
	C280.729248,423.341797 286.042328,414.576080 291.317627,405.377930 
z"/>
<path fill="#000000" opacity="1.000000" stroke="none" 
	d="
M245.980820,691.009277 
	C239.099289,663.605652 234.955597,636.268677 234.935852,608.346985 
	C237.431610,607.848877 238.153961,609.716187 239.212082,610.772217 
	C271.869446,643.363831 304.475922,676.006470 337.134460,708.596924 
	C338.996246,710.454895 340.062866,712.278625 340.057678,715.072021 
	C339.972412,760.876953 340.000519,806.682129 339.979004,852.487244 
	C339.978485,853.592346 340.325684,854.808716 339.176819,856.070679 
	C332.697723,851.637024 328.144226,845.237305 323.183502,839.437866 
	C311.914581,826.263489 301.452911,812.423706 292.184509,797.725220 
	C277.948639,775.148926 266.010803,751.472961 256.898865,726.336060 
	C252.733139,714.844116 249.244263,703.186829 245.980820,691.009277 
z"/>
<path fill="#000000" opacity="1.000000" stroke="none" 
	d="
M922.249939,654.249939 
	C936.920532,639.552917 951.341187,625.105896 965.761780,610.658936 
	C966.191345,610.859741 966.620911,611.060547 967.050415,611.261353 
	C966.695374,640.824219 961.811157,669.751099 954.087341,698.290161 
	C946.319458,726.992004 934.985168,754.234863 920.391418,780.102417 
	C905.845154,805.885620 888.473755,829.613403 868.083069,851.344543 
	C866.447021,849.509033 867.032471,847.776123 867.031128,846.222900 
	C866.993042,802.253967 867.037292,758.285034 866.929504,714.316345 
	C866.921082,710.870911 867.924561,708.443420 870.364197,706.029846 
	C887.650330,688.928223 904.804077,671.692810 922.249939,654.249939 
z"/>
<path fill="#000000" opacity="1.000000" stroke="none" 
	d="
M120.865135,717.888428 
	C120.675407,718.312195 120.216660,718.827881 119.927055,718.745972 
	C119.045670,718.496460 119.753349,718.052734 120.114357,717.516113 
	C120.417450,717.465881 120.545464,717.586548 120.865135,717.888428 
z"/>
<path fill="#000000" opacity="1.000000" stroke="none" 
	d="
M1020.628357,358.800476 
	C1025.815552,353.756866 1032.474487,351.047119 1038.232056,346.949921 
	C1040.111694,345.612183 1041.463379,346.017151 1042.641968,348.051544 
	C1044.956177,352.045898 1047.749878,355.789612 1049.779541,359.915314 
	C1052.580322,365.608459 1050.559326,371.339478 1045.223389,374.365448 
	C1038.549683,378.150024 1032.710938,377.214539 1028.848633,371.568329 
	C1026.056030,367.485992 1023.464050,363.266388 1020.628357,358.800476 
z"/>
<path fill="#000000" opacity="1.000000" stroke="none" 
	d="
M310.322449,245.137115 
	C308.414062,246.592789 306.998199,246.532043 306.235443,244.437088 
	C301.856049,232.408966 297.519989,220.365097 292.980591,207.804764 
	C296.944824,208.375977 298.876831,211.072845 301.332550,212.746948 
	C309.366913,218.224106 317.058258,224.220230 325.235138,229.465469 
	C329.077118,231.929993 327.159363,232.884537 324.989746,234.452652 
	C320.179810,237.929092 315.384216,241.425446 310.322449,245.137115 
z"/>
<path fill="#000000" opacity="1.000000" stroke="none" 
	d="
M134.685120,566.313049 
	C123.673439,561.502258 112.989647,556.886047 102.305862,552.269897 
	C102.351227,551.919495 102.396599,551.569153 102.441963,551.218750 
	C111.774521,549.147522 121.102409,547.054810 130.442062,545.016113 
	C133.970032,544.245972 137.593369,543.832336 141.044403,542.817932 
	C143.395523,542.126831 144.377106,542.776855 143.894638,544.924500 
	C142.150681,552.687622 143.865097,560.782898 141.313828,568.558472 
	C139.121643,568.551453 137.067474,567.529114 134.685120,566.313049 
z"/>
<path fill="#000000" opacity="1.000000" stroke="none" 
	d="
M735.901794,1040.971191 
	C734.002136,1036.074951 735.092041,1032.741211 739.344788,1030.101929 
	C747.876831,1024.806763 757.625610,1022.623718 766.804810,1018.998901 
	C770.931396,1017.369263 775.225098,1016.096375 779.528320,1014.994934 
	C787.726257,1012.896301 789.326660,1013.659058 793.588806,1020.869263 
	C794.008423,1021.579102 794.605530,1022.222412 794.863403,1022.983643 
	C799.240784,1035.904663 801.641357,1032.906006 787.925659,1039.177979 
	C776.345459,1044.473267 764.644653,1049.453979 752.382202,1052.898315 
	C743.616699,1055.360352 740.123169,1053.263428 737.043762,1044.663330 
	C736.655090,1043.577881 736.335571,1042.467651 735.901794,1040.971191 
z"/>
<path fill="#000000" opacity="1.000000" stroke="none" 
	d="
M503.216187,1048.718872 
	C506.685974,1039.935791 514.031738,1041.549316 520.341736,1042.215088 
	C530.798889,1043.318604 541.163757,1045.318481 551.555664,1047.013428 
	C561.991150,1048.715332 565.583130,1054.084473 563.343628,1064.460815 
	C561.381775,1073.550903 561.387939,1073.319580 552.069824,1073.070801 
	C539.828491,1072.744263 527.720947,1071.454834 515.719360,1069.101929 
	C502.614288,1066.532715 501.301727,1064.690063 502.971802,1051.600342 
	C503.076691,1050.778198 503.064484,1049.941162 503.216187,1048.718872 
z"/>
<path fill="#711A5F" opacity="1.000000" stroke="none" 
	d="
M418.000183,600.858154 
	C419.263733,613.154480 420.544678,624.966675 421.781769,636.783447 
	C422.281403,641.555908 422.663330,646.401184 422.787567,651.133850 
	C423.162048,665.401489 424.416412,679.621216 425.281219,693.837280 
	C426.182739,708.656982 425.570862,723.427612 425.968414,738.212708 
	C426.196350,746.689514 424.598938,755.004944 422.764709,763.218628 
	C421.111267,770.622925 417.948090,773.724915 412.911499,773.990723 
	C404.789062,774.419373 400.098450,771.640869 397.294647,764.482727 
	C394.994690,758.610962 393.678162,752.444031 393.063171,746.204407 
	C390.334656,718.521912 390.250885,690.716003 391.272949,662.998596 
	C391.966522,644.190491 391.157135,625.393921 392.092896,606.630859 
	C393.077484,586.889282 390.147400,567.691956 385.787994,548.577271 
	C382.012939,532.024841 390.902985,519.347595 407.939026,517.081543 
	C417.947693,515.750244 428.017395,515.098633 438.135498,514.928650 
	C447.488251,514.771484 456.552460,513.122009 464.141663,506.948822 
	C464.525574,506.636505 464.991943,506.420105 465.354340,506.087585 
	C468.341400,503.346710 471.703979,500.123932 470.623230,496.028229 
	C469.372284,491.287567 464.371490,491.148041 460.259583,491.058289 
	C447.661499,490.783356 435.138611,490.000763 423.058411,486.082825 
	C411.191650,482.234039 405.869110,474.883881 406.039001,462.343445 
	C406.241394,447.402618 407.338562,432.649414 414.444366,418.948334 
	C419.986481,408.262207 433.447021,408.829590 438.742767,416.282532 
	C442.564056,421.660370 440.358124,427.391876 439.480499,433.001526 
	C438.485535,439.360992 437.179199,445.604980 438.947754,452.133575 
	C442.291351,464.476257 458.414551,470.596405 468.685699,463.084381 
	C473.117432,459.843079 474.682739,455.125641 475.037476,449.750854 
	C475.950470,435.919067 472.177063,422.339752 472.989380,408.522644 
	C473.296783,403.294220 474.325928,398.377777 478.091309,394.411377 
	C486.027191,386.051788 496.486938,387.598114 502.351440,397.639282 
	C506.484802,404.716461 506.281464,412.118652 505.616119,419.817383 
	C504.610779,431.449890 501.397919,442.963562 503.943634,454.814148 
	C504.840607,458.989624 506.446564,461.412842 511.037933,462.290619 
	C518.092590,463.639313 524.882812,464.845520 531.951538,462.174011 
	C539.289551,459.400726 542.053162,454.044373 538.940857,446.971313 
	C535.466492,439.075500 532.019653,431.304291 532.909119,422.246857 
	C533.566345,415.553894 536.106567,410.538177 542.436096,407.871735 
	C548.320557,405.392822 552.768738,408.451233 556.624268,412.218658 
	C566.292419,421.665741 570.784119,433.606415 571.907104,446.808441 
	C572.448914,453.178101 572.717896,459.643463 571.418152,466.021362 
	C568.694519,479.385651 559.835327,486.302582 547.091614,488.931580 
	C540.815552,490.226288 534.429626,490.767609 528.009949,490.005066 
	C522.983337,489.408051 518.065979,490.560333 513.176636,491.230072 
	C507.065674,492.067169 504.467712,497.434357 506.550110,503.195618 
	C508.829468,509.501648 519.433533,517.726440 529.926025,516.315002 
	C538.907471,515.106812 547.699768,512.416199 556.952087,512.890137 
	C561.335388,513.114746 565.434326,514.081604 569.544922,515.308716 
	C578.305359,517.923889 580.852356,525.419312 582.805420,532.994446 
	C586.524902,547.420288 587.968811,562.175476 589.186157,577.023621 
	C590.318787,590.839355 590.177795,604.626099 589.859802,618.392578 
	C589.377563,639.269653 588.526306,660.174194 586.714111,680.969666 
	C585.776184,691.732117 585.594238,702.545105 585.469238,713.222778 
	C585.311157,726.728943 587.391479,740.325195 586.908447,753.917969 
	C586.517212,764.923889 580.348572,768.584717 572.623413,767.768555 
	C559.726624,766.405823 557.381592,762.554077 559.381409,749.217285 
	C562.681030,727.210938 562.421143,705.145813 561.742920,683.117676 
	C561.175293,664.682068 560.640381,646.318665 561.885437,627.893860 
	C562.938965,612.302551 563.627136,596.656799 562.855957,581.036377 
	C562.574707,575.340881 561.964966,569.516052 559.916016,564.024963 
	C556.858093,555.829834 548.898315,553.177979 541.556335,557.961548 
	C536.615723,561.180542 532.675842,565.406433 529.400940,570.258850 
	C527.015381,573.793579 527.675964,575.816406 531.891602,576.770935 
	C534.993286,577.473145 537.867859,578.521179 540.721680,579.866577 
	C542.676758,580.788269 543.808655,582.479736 543.544861,584.148193 
	C542.692749,589.538391 542.497009,595.013489 541.610657,600.355103 
	C540.155518,609.124573 535.666443,611.434387 526.491516,609.773132 
	C520.891418,608.759155 515.266113,606.728699 509.435059,608.998596 
	C504.522888,610.910767 501.090485,619.347961 503.527954,623.948486 
	C505.118835,626.951172 508.025757,626.967834 510.836578,626.978027 
	C517.623657,627.002686 524.425781,626.720459 531.009338,628.906860 
	C537.368530,631.018921 541.144226,636.294983 540.853333,642.764099 
	C540.590027,648.621155 537.114014,652.265137 530.244995,653.985962 
	C524.974426,655.306335 519.577515,655.940430 514.286743,657.268921 
	C507.578674,658.953369 505.699829,663.425171 504.967499,669.481750 
	C503.443481,682.085938 503.612823,694.747803 504.151306,707.338867 
	C504.892792,724.675781 506.883972,741.955750 507.877411,759.286682 
	C508.589539,771.710205 508.132355,784.150085 504.786194,796.276245 
	C502.284485,805.342346 498.410248,808.571106 490.737396,807.966125 
	C484.740051,807.493225 481.959473,802.898071 479.789154,798.280823 
	C474.590485,787.220947 472.379913,775.353638 472.089233,763.218445 
	C471.910339,755.749451 470.306824,748.368225 471.014130,740.859924 
	C473.058075,719.162292 473.221405,697.400269 472.920929,675.637085 
	C472.859985,671.222717 471.481323,666.834778 471.310181,662.411377 
	C471.130676,657.772705 468.282043,657.299194 464.751831,656.969177 
	C459.006012,656.432007 453.262360,655.799377 447.552551,654.968262 
	C440.630798,653.960754 437.226624,650.498047 437.006989,644.659424 
	C436.743134,637.645874 439.856842,633.804688 446.901550,631.961914 
	C452.781494,630.423889 458.908173,629.712524 464.408478,626.840515 
	C469.610077,624.124512 471.310394,621.395142 469.839966,616.517090 
	C468.571930,612.310547 465.096710,610.918518 460.877289,610.984253 
	C456.045380,611.059509 451.208832,611.091980 446.378723,610.969238 
	C439.617157,610.797424 437.161163,608.166382 436.980988,601.543579 
	C436.763611,593.553833 439.540527,585.815125 438.956146,577.829041 
	C438.564575,572.478027 437.165649,567.443665 433.047729,563.538635 
	C429.087372,559.783142 425.777588,560.070251 423.104431,564.913513 
	C419.951294,570.626343 418.269623,576.863831 418.043243,583.386414 
	C417.846924,589.043274 418.000854,594.712280 418.000183,600.858154 
z"/>
<path fill="#711A5F" opacity="1.000000" stroke="none" 
	d="
M746.962524,421.069336 
	C748.648621,425.487122 750.675110,429.152740 754.750793,431.364563 
	C758.953674,433.645386 762.799316,433.731750 766.795166,430.801025 
	C773.070129,426.198792 779.848328,423.290833 788.006409,423.890411 
	C793.641602,424.304596 797.690247,426.826538 799.651917,431.666901 
	C801.489990,436.202484 802.684326,441.298279 801.872375,446.233154 
	C795.007446,487.956879 796.989624,530.021851 797.222595,571.981140 
	C797.305176,586.859009 798.276306,601.794006 799.092041,616.686096 
	C800.068237,634.507996 801.711304,652.292480 802.928833,670.102539 
	C803.346802,676.216736 803.548828,682.366516 803.780457,688.471985 
	C804.334412,703.071350 805.870605,717.678711 804.945190,732.302124 
	C804.221558,743.735474 809.120728,753.938049 811.378723,764.714417 
	C812.310547,769.161377 812.535034,773.633606 811.391846,777.991516 
	C810.044983,783.125610 805.827881,785.198853 801.066589,785.894897 
	C795.570862,786.698242 790.667419,785.546265 786.902222,780.804993 
	C780.783875,773.100464 778.726257,763.849304 777.242065,754.622437 
	C775.275391,742.395264 773.483093,730.024841 774.083557,717.596558 
	C775.028503,698.038086 775.214233,678.446472 776.273132,658.916077 
	C777.013062,645.269775 777.380920,631.625488 776.751831,618.064392 
	C776.120911,604.465942 776.146973,590.611755 771.266052,577.474731 
	C768.035156,568.778442 758.644714,563.676880 749.415222,565.238464 
	C741.996460,566.493835 734.511414,568.167847 726.855408,566.038208 
	C719.988525,564.128113 715.873169,559.780396 716.095703,552.564636 
	C716.495972,539.584839 714.742798,526.739319 713.766174,513.885315 
	C712.152588,492.648926 711.740234,471.423248 712.104248,450.180206 
	C712.336060,436.649506 713.991699,423.172974 717.173584,409.977600 
	C719.655396,399.685516 726.040527,395.575378 733.786987,399.130219 
	C738.081848,401.101105 740.154358,405.200165 741.966003,409.339355 
	C743.621033,413.120758 745.261780,416.908447 746.962524,421.069336 
z"/>
<path fill="#711A5F" opacity="1.000000" stroke="none" 
	d="
M625.999756,577.000000 
	C625.999817,565.668701 626.479065,554.811462 625.895752,544.011658 
	C624.825195,524.189331 624.063721,504.353149 622.278076,484.555359 
	C620.897522,469.247498 618.138123,454.047577 618.078674,438.640839 
	C618.054749,432.452667 619.681335,426.520050 623.875977,421.644806 
	C626.855286,418.182129 630.280151,418.054108 634.028809,420.436188 
	C639.982788,424.219666 644.915405,429.459900 651.782776,431.988159 
	C658.935852,434.621582 665.934875,432.174591 669.307800,425.268768 
	C672.346069,419.048035 672.614197,412.436218 671.721313,405.820099 
	C670.906311,399.781311 672.261169,396.468628 677.447693,394.307526 
	C683.459595,391.802460 688.845642,393.015381 692.157532,397.321625 
	C698.571533,405.661316 700.487488,415.632812 701.871033,425.557251 
	C705.588013,452.219635 706.768311,479.075317 705.904358,505.967102 
	C705.421265,521.005188 704.271118,536.039917 702.865784,551.024109 
	C701.864075,561.704285 693.894836,567.083984 683.004761,564.800842 
	C663.260925,560.661377 655.552551,569.416321 652.094788,586.854797 
	C648.419800,605.388733 649.874695,624.147888 650.859924,642.887695 
	C651.986145,664.309021 651.304382,685.706604 644.905823,706.425842 
	C638.187256,728.181458 634.370605,750.695068 627.336121,772.359680 
	C625.578369,777.773193 622.545410,781.968689 616.705688,782.894897 
	C610.414185,783.892944 606.353149,779.875916 603.198181,775.238586 
	C598.684937,768.604736 599.465942,761.334412 602.092102,754.289001 
	C605.483948,745.189636 610.153809,736.602478 612.190369,726.955627 
	C615.394104,711.780212 618.243958,696.576782 620.130066,681.158569 
	C622.602539,660.946228 624.103577,640.699402 625.255676,620.370239 
	C626.067017,606.053406 625.512512,591.781799 625.999756,577.000000 
z"/>
<path fill="#711A5F" opacity="1.000000" stroke="none" 
	d="
M664.083618,747.134888 
	C668.325317,732.597839 670.528442,718.138123 672.141418,703.500244 
	C673.442383,691.693726 672.755432,679.926880 672.934937,668.146118 
	C673.036987,661.445007 672.128967,655.381897 667.579285,649.326660 
	C661.208557,640.847778 660.580444,625.637390 670.589539,616.788757 
	C676.426392,611.628723 676.030029,609.254089 669.866943,604.293762 
	C663.094543,598.843018 660.597168,591.695190 662.991577,584.615662 
	C665.312622,577.753113 672.556519,572.987854 680.941650,573.033875 
	C685.223816,573.057434 689.537354,572.478577 693.762207,574.022888 
	C702.138611,577.084595 704.872437,582.552429 702.381592,591.244995 
	C701.257812,595.166687 698.981506,598.381409 696.834167,601.716797 
	C692.752319,608.056824 693.088745,612.760559 697.899963,618.414246 
	C699.509949,620.306030 701.111084,622.214172 702.583313,624.212830 
	C707.287842,630.599304 707.708923,637.430664 702.318115,643.772949 
	C698.419434,648.359741 697.219971,653.504395 697.191589,658.762939 
	C697.138855,668.574158 696.143738,678.320007 695.834778,688.107910 
	C695.084717,711.868530 694.403442,735.728699 687.974426,758.859558 
	C683.693787,774.261169 676.546814,788.334045 666.551086,800.840515 
	C662.256836,806.213440 656.442017,807.365112 651.055725,804.537842 
	C646.504517,802.148987 645.362732,797.855774 646.873779,790.712646 
	C648.125122,784.796814 650.635925,779.437988 653.419067,774.176636 
	C657.916443,765.674316 661.863892,756.967346 664.083618,747.134888 
z"/>
<path fill="#711A5F" opacity="1.000000" stroke="none" 
	d="
M746.997131,687.821167 
	C746.832275,692.600647 746.030151,696.823975 745.900635,701.157104 
	C745.417786,717.318787 747.581421,733.127014 751.429871,748.753479 
	C753.400574,756.755127 753.276978,764.892395 752.884705,772.990967 
	C752.574158,779.402527 747.973328,784.109802 741.468933,785.720825 
	C736.638733,786.917053 728.489746,783.211304 725.056091,778.338013 
	C722.015259,774.022156 720.715881,768.933228 720.317017,763.975281 
	C719.694336,756.234802 719.342285,748.382690 720.602295,740.612427 
	C720.707886,739.961670 720.957336,739.313049 720.944336,738.667358 
	C720.627014,722.897400 722.866516,707.247253 723.061890,691.491516 
	C723.302795,672.062073 722.905762,652.820068 715.735413,634.318542 
	C712.507812,625.990417 712.958191,617.731384 718.992798,610.508667 
	C720.557373,608.635986 719.666626,607.108032 718.806030,605.502441 
	C717.018433,602.167480 714.835510,599.100586 713.633484,595.392456 
	C709.603882,582.962097 715.880981,572.609741 728.854797,571.108643 
	C733.624207,570.556763 738.548218,570.574829 743.134644,572.211365 
	C750.363098,574.790527 756.928284,580.792358 752.305786,594.323975 
	C750.867737,598.533691 749.198425,602.665588 747.585327,606.813843 
	C746.344360,610.004883 747.019653,612.828979 749.646484,614.822144 
	C752.382812,616.898376 756.362976,618.064209 756.720154,621.951660 
	C757.231628,627.519165 757.890442,633.254639 755.615906,638.661621 
	C754.657104,640.940857 753.587463,643.271667 752.087158,645.205872 
	C748.126282,650.312256 746.651855,655.926270 746.916504,662.368835 
	C747.257935,670.679993 746.998352,679.015808 746.997131,687.821167 
z"/>
<path fill="#000000" opacity="1.000000" stroke="none" 
	d="
M455.242584,552.742432 
	C452.959198,550.098389 450.772156,547.820679 448.933258,545.290039 
	C446.285675,541.646240 449.594604,536.634827 455.043121,536.059753 
	C459.864441,535.550781 464.741821,535.908936 469.320282,537.311035 
	C480.176025,540.635437 490.971741,538.626648 501.782837,537.506348 
	C506.574890,537.009705 511.332062,536.317139 516.013428,537.933411 
	C520.508545,539.485352 521.204224,542.356628 517.734985,545.629395 
	C516.079956,547.190735 514.055908,548.468201 512.005432,549.483032 
	C505.917664,552.496094 503.251770,557.932068 500.822968,563.843933 
	C498.769348,568.842529 496.455231,573.689270 492.749329,577.961060 
	C487.485046,584.029175 478.993622,582.630798 474.311676,577.831116 
	C470.921692,574.355835 468.715454,570.076416 466.039001,566.114380 
	C462.888062,561.449951 459.563446,556.923218 455.242584,552.742432 
z"/>
<path fill="#000000" opacity="1.000000" stroke="none" 
	d="
M759.918091,542.987915 
	C748.398987,542.334045 745.013428,534.394226 744.143433,527.696533 
	C743.485291,522.630005 743.878662,517.442810 745.060181,512.369812 
	C746.024963,508.227417 749.544067,507.456787 752.659912,507.188568 
	C759.933533,506.562317 766.836548,508.226807 770.834167,514.934021 
	C775.181091,522.227295 775.496887,530.123596 770.963440,537.534668 
	C768.700439,541.234070 764.527832,542.418579 759.918091,542.987915 
z"/>
<path fill="#000000" opacity="1.000000" stroke="none" 
	d="
M763.216675,455.648132 
	C769.294128,458.889801 773.476807,463.368195 776.118347,469.340149 
	C778.801636,475.406097 775.841980,481.255280 769.219849,481.851379 
	C763.478516,482.368256 757.706299,482.303955 752.083435,480.159027 
	C743.076111,476.723083 738.633179,466.137482 742.853333,457.476837 
	C744.950623,453.172729 748.624023,451.449585 753.069885,452.254578 
	C756.419800,452.861115 759.858765,453.660828 763.216675,455.648132 
z"/>
<path fill="#000000" opacity="1.000000" stroke="none" 
	d="
M653.254639,508.274231 
	C659.444702,502.246826 670.048706,501.066620 674.733582,505.658356 
	C681.173645,511.970490 681.794006,523.696655 675.838928,530.568481 
	C671.799622,535.229553 667.158386,539.085327 661.029785,540.969421 
	C653.867493,543.171265 651.110291,541.918213 648.843018,534.626160 
	C645.930664,525.259827 646.870728,516.475037 653.254639,508.274231 
z"/>
<path fill="#000000" opacity="1.000000" stroke="none" 
	d="
M655.545044,481.747925 
	C649.171204,479.351776 644.874084,474.734741 645.062927,470.765411 
	C645.251831,466.797333 650.332642,462.356537 656.507812,460.695831 
	C661.909058,459.243256 667.239685,457.629333 672.980103,457.937286 
	C675.910950,458.094513 677.657837,459.562134 678.780884,461.849182 
	C683.060242,470.564484 677.648438,480.640900 668.026672,481.944458 
	C664.004395,482.489380 659.949524,483.466614 655.545044,481.747925 
z"/>
</svg>